<?xml version="1.0" encoding="UTF-8" standalone="no"?>
<!DOCTYPE svg PUBLIC "-//W3C//DTD SVG 1.1//EN" "http://www.w3.org/Graphics/SVG/1.1/DTD/svg11.dtd">
<svg width="100%" height="100%" viewBox="0 0 786 170" version="1.1" xmlns="http://www.w3.org/2000/svg" xmlns:xlink="http://www.w3.org/1999/xlink" xml:space="preserve" xmlns:serif="http://www.serif.com/" style="fill-rule:evenodd;clip-rule:evenodd;stroke-linejoin:round;stroke-miterlimit:2;">
    <g transform="matrix(1,0,0,1,-104.565,-622.226)">
        <g transform="matrix(1,0,0,1,-61.0571,52.7818)">
            <g transform="matrix(91.2,0,0,96,307.393,642.405)">
                <path d="M0.502,-0.191C0.502,-0.303 0.433,-0.35 0.307,-0.397C0.191,-0.44 0.151,-0.469 0.151,-0.541C0.151,-0.603 0.197,-0.645 0.286,-0.645C0.348,-0.645 0.406,-0.628 0.456,-0.607L0.485,-0.684C0.431,-0.708 0.366,-0.724 0.288,-0.724C0.153,-0.724 0.06,-0.655 0.06,-0.542C0.06,-0.431 0.122,-0.374 0.244,-0.33C0.373,-0.283 0.412,-0.253 0.412,-0.183C0.412,-0.112 0.357,-0.068 0.251,-0.068C0.175,-0.068 0.11,-0.084 0.079,-0.098L0.051,-0.024C0.096,-0.002 0.167,0.01 0.247,0.01C0.403,0.01 0.502,-0.064 0.502,-0.191Z" style="fill:white;fill-rule:nonzero;"/>
            </g>
            <g transform="matrix(91.2,0,0,96,357.461,642.405)">
                <path d="M0.281,-0.474C0.37,-0.474 0.41,-0.412 0.411,-0.321L0.138,-0.321C0.147,-0.417 0.197,-0.474 0.281,-0.474ZM0.282,-0.546C0.14,-0.546 0.045,-0.44 0.045,-0.264C0.045,-0.085 0.15,0.01 0.303,0.01C0.376,0.01 0.424,-0.001 0.479,-0.025L0.454,-0.091C0.412,-0.075 0.359,-0.065 0.307,-0.065C0.2,-0.065 0.139,-0.13 0.136,-0.251L0.503,-0.251L0.503,-0.304C0.503,-0.45 0.419,-0.546 0.282,-0.546Z" style="fill:white;fill-rule:nonzero;"/>
            </g>
            <g transform="matrix(91.2,0,0,96,405.154,642.405)">
                <path d="M0.294,-0L0.498,-0.536L0.404,-0.536L0.29,-0.22C0.275,-0.177 0.252,-0.111 0.245,-0.078L0.241,-0.078C0.235,-0.111 0.214,-0.176 0.198,-0.22L0.084,-0.536L-0.01,-0.536L0.193,-0L0.294,-0Z" style="fill:white;fill-rule:nonzero;"/>
            </g>
            <g transform="matrix(91.2,0,0,96,449.66,642.405)">
                <path d="M0.281,-0.474C0.37,-0.474 0.41,-0.412 0.411,-0.321L0.138,-0.321C0.147,-0.417 0.197,-0.474 0.281,-0.474ZM0.282,-0.546C0.14,-0.546 0.045,-0.44 0.045,-0.264C0.045,-0.085 0.15,0.01 0.303,0.01C0.376,0.01 0.424,-0.001 0.479,-0.025L0.454,-0.091C0.412,-0.075 0.359,-0.065 0.307,-0.065C0.2,-0.065 0.139,-0.13 0.136,-0.251L0.503,-0.251L0.503,-0.304C0.503,-0.45 0.419,-0.546 0.282,-0.546Z" style="fill:white;fill-rule:nonzero;"/>
            </g>
            <g transform="matrix(91.2,0,0,96,499.273,642.405)">
                <path d="M0.333,-0.546C0.265,-0.546 0.199,-0.519 0.164,-0.463L0.159,-0.463L0.146,-0.536L0.075,-0.536L0.075,-0L0.163,-0L0.163,-0.278C0.163,-0.403 0.201,-0.472 0.32,-0.472C0.402,-0.472 0.44,-0.429 0.44,-0.343L0.44,-0L0.527,-0L0.527,-0.349C0.527,-0.487 0.461,-0.546 0.333,-0.546Z" style="fill:white;fill-rule:nonzero;"/>
            </g>
            <g transform="matrix(91.2,0,0,96,553.81,642.405)">
                <path d="M0.228,-0.062C0.179,-0.062 0.144,-0.093 0.144,-0.158L0.144,-0.468L0.299,-0.468L0.299,-0.536L0.144,-0.536L0.144,-0.659L0.056,-0.626L0.056,-0.156C0.056,-0.026 0.129,0.01 0.213,0.01C0.254,0.01 0.292,-0 0.311,-0.012L0.287,-0.075C0.275,-0.069 0.248,-0.062 0.228,-0.062Z" style="fill:white;fill-rule:nonzero;"/>
            </g>
            <g transform="matrix(91.2,0,0,96,582.538,642.405)">
                <path d="M0.075,-0.727L0.075,-0L0.163,-0L0.163,-0.277C0.163,-0.402 0.2,-0.472 0.32,-0.472C0.402,-0.472 0.44,-0.429 0.44,-0.343L0.44,-0L0.527,-0L0.527,-0.349C0.527,-0.486 0.461,-0.545 0.331,-0.545C0.262,-0.545 0.198,-0.517 0.164,-0.462L0.158,-0.462C0.161,-0.483 0.163,-0.511 0.163,-0.537L0.163,-0.76L0.075,-0.727Z" style="fill:white;fill-rule:nonzero;"/>
            </g>
            <g transform="matrix(91.2,0,0,96,635.799,642.405)">
                <path d="M0.287,-0.229L0.257,-0.307L0.015,-0.307L0.045,-0.229L0.287,-0.229Z" style="fill:white;fill-rule:nonzero;"/>
            </g>
            <g transform="matrix(91.2,0,0,96,663.341,642.405)">
                <path d="M0.289,-0.063C0.193,-0.063 0.146,-0.137 0.146,-0.265C0.146,-0.392 0.193,-0.473 0.288,-0.473C0.407,-0.473 0.443,-0.399 0.443,-0.266L0.443,-0.25C0.443,-0.125 0.402,-0.063 0.289,-0.063ZM0.275,0.01C0.359,0.01 0.41,-0.026 0.442,-0.072L0.446,-0.072L0.459,-0L0.53,-0L0.53,-0.76L0.442,-0.726L0.442,-0.546C0.442,-0.526 0.446,-0.484 0.448,-0.467L0.442,-0.467C0.409,-0.511 0.359,-0.546 0.276,-0.546C0.143,-0.546 0.055,-0.451 0.055,-0.267C0.055,-0.083 0.142,0.01 0.275,0.01Z" style="fill:white;fill-rule:nonzero;"/>
            </g>
            <g transform="matrix(91.2,0,0,96,719.429,642.405)">
                <path d="M0.383,-0.214C0.383,-0.11 0.315,-0.061 0.225,-0.061C0.167,-0.061 0.127,-0.088 0.127,-0.148C0.127,-0.216 0.17,-0.254 0.304,-0.259L0.383,-0.262L0.383,-0.214ZM0.278,-0.545C0.208,-0.545 0.142,-0.524 0.095,-0.499L0.122,-0.433C0.166,-0.454 0.217,-0.474 0.273,-0.474C0.343,-0.474 0.384,-0.444 0.384,-0.355L0.384,-0.323L0.293,-0.32C0.118,-0.314 0.036,-0.256 0.036,-0.149C0.036,-0.04 0.108,0.01 0.205,0.01C0.295,0.01 0.338,-0.017 0.385,-0.076L0.389,-0.076L0.406,-0L0.47,-0L0.47,-0.365C0.47,-0.49 0.408,-0.545 0.278,-0.545Z" style="fill:white;fill-rule:nonzero;"/>
            </g>
            <g transform="matrix(91.2,0,0,96,768.769,642.405)">
                <path d="M0.207,0.002L0.179,0.073C0.156,0.131 0.14,0.15 0.099,0.169L0.126,0.24C0.197,0.212 0.231,0.175 0.269,0.074L0.5,-0.536L0.405,-0.536L0.296,-0.232C0.276,-0.177 0.258,-0.118 0.25,-0.085L0.246,-0.085C0.238,-0.129 0.221,-0.177 0.201,-0.231L0.085,-0.536L-0.009,-0.536L0.207,0.002Z" style="fill:white;fill-rule:nonzero;"/>
            </g>
            <g transform="matrix(91.2,0,0,96,166.534,738.405)">
                <path d="M0.196,-0.301L0.277,-0.517C0.286,-0.54 0.298,-0.583 0.308,-0.624C0.315,-0.599 0.336,-0.533 0.342,-0.517L0.422,-0.301L0.196,-0.301ZM0.628,-0L0.35,-0.717L0.269,-0.717L-0.01,-0L0.081,-0L0.166,-0.221L0.449,-0.221L0.535,-0L0.628,-0Z" style="fill:white;fill-rule:nonzero;"/>
            </g>
            <g transform="matrix(91.2,0,0,96,222.987,738.405)">
                <path d="M0.289,-0.063C0.193,-0.063 0.146,-0.137 0.146,-0.265C0.146,-0.392 0.193,-0.473 0.288,-0.473C0.407,-0.473 0.443,-0.399 0.443,-0.266L0.443,-0.25C0.443,-0.125 0.402,-0.063 0.289,-0.063ZM0.275,0.01C0.359,0.01 0.41,-0.026 0.442,-0.072L0.446,-0.072L0.459,-0L0.53,-0L0.53,-0.76L0.442,-0.726L0.442,-0.546C0.442,-0.526 0.446,-0.484 0.448,-0.467L0.442,-0.467C0.409,-0.511 0.359,-0.546 0.276,-0.546C0.143,-0.546 0.055,-0.451 0.055,-0.267C0.055,-0.083 0.142,0.01 0.275,0.01Z" style="fill:white;fill-rule:nonzero;"/>
            </g>
            <g transform="matrix(91.2,0,0,96,279.075,738.405)">
                <path d="M0.294,-0L0.498,-0.536L0.404,-0.536L0.29,-0.22C0.275,-0.177 0.252,-0.111 0.245,-0.078L0.241,-0.078C0.235,-0.111 0.214,-0.176 0.198,-0.22L0.084,-0.536L-0.01,-0.536L0.193,-0L0.294,-0Z" style="fill:white;fill-rule:nonzero;"/>
            </g>
            <g transform="matrix(91.2,0,0,96,323.581,738.405)">
                <path d="M0.281,-0.474C0.37,-0.474 0.41,-0.412 0.411,-0.321L0.138,-0.321C0.147,-0.417 0.197,-0.474 0.281,-0.474ZM0.282,-0.546C0.14,-0.546 0.045,-0.44 0.045,-0.264C0.045,-0.085 0.15,0.01 0.303,0.01C0.376,0.01 0.424,-0.001 0.479,-0.025L0.454,-0.091C0.412,-0.075 0.359,-0.065 0.307,-0.065C0.2,-0.065 0.139,-0.13 0.136,-0.251L0.503,-0.251L0.503,-0.304C0.503,-0.45 0.419,-0.546 0.282,-0.546Z" style="fill:white;fill-rule:nonzero;"/>
            </g>
            <g transform="matrix(91.2,0,0,96,373.193,738.405)">
                <path d="M0.333,-0.546C0.265,-0.546 0.199,-0.519 0.164,-0.463L0.159,-0.463L0.146,-0.536L0.075,-0.536L0.075,-0L0.163,-0L0.163,-0.278C0.163,-0.403 0.201,-0.472 0.32,-0.472C0.402,-0.472 0.44,-0.429 0.44,-0.343L0.44,-0L0.527,-0L0.527,-0.349C0.527,-0.487 0.461,-0.546 0.333,-0.546Z" style="fill:white;fill-rule:nonzero;"/>
            </g>
            <g transform="matrix(91.2,0,0,96,427.731,738.405)">
                <path d="M0.228,-0.062C0.179,-0.062 0.144,-0.093 0.144,-0.158L0.144,-0.468L0.299,-0.468L0.299,-0.536L0.144,-0.536L0.144,-0.659L0.056,-0.626L0.056,-0.156C0.056,-0.026 0.129,0.01 0.213,0.01C0.254,0.01 0.292,-0 0.311,-0.012L0.287,-0.075C0.275,-0.069 0.248,-0.062 0.228,-0.062Z" style="fill:white;fill-rule:nonzero;"/>
            </g>
            <g transform="matrix(91.2,0,0,96,456.459,738.405)">
                <path d="M0.075,-0.536L0.075,-0L0.163,-0L0.163,-0.536L0.075,-0.536ZM0.12,-0.737C0.091,-0.737 0.068,-0.72 0.068,-0.681C0.068,-0.643 0.091,-0.625 0.12,-0.625C0.147,-0.625 0.171,-0.643 0.171,-0.681C0.171,-0.72 0.147,-0.737 0.12,-0.737Z" style="fill:white;fill-rule:nonzero;"/>
            </g>
            <g transform="matrix(91.2,0,0,96,478.165,738.405)">
                <path d="M0.424,-0.148C0.424,-0.234 0.365,-0.269 0.263,-0.307C0.16,-0.346 0.125,-0.364 0.125,-0.409C0.125,-0.449 0.164,-0.474 0.236,-0.474C0.288,-0.474 0.34,-0.459 0.386,-0.439L0.413,-0.51C0.363,-0.532 0.307,-0.546 0.242,-0.546C0.122,-0.546 0.041,-0.495 0.041,-0.404C0.041,-0.316 0.103,-0.284 0.207,-0.244C0.312,-0.204 0.339,-0.18 0.339,-0.14C0.339,-0.092 0.301,-0.061 0.212,-0.061C0.161,-0.061 0.103,-0.077 0.068,-0.092L0.042,-0.024C0.083,-0.002 0.135,0.01 0.21,0.01C0.341,0.01 0.424,-0.044 0.424,-0.148Z" style="fill:white;fill-rule:nonzero;"/>
            </g>
            <g transform="matrix(91.2,0,0,96,519.752,738.405)">
                <path d="M0.228,-0.062C0.179,-0.062 0.144,-0.093 0.144,-0.158L0.144,-0.468L0.299,-0.468L0.299,-0.536L0.144,-0.536L0.144,-0.659L0.056,-0.626L0.056,-0.156C0.056,-0.026 0.129,0.01 0.213,0.01C0.254,0.01 0.292,-0 0.311,-0.012L0.287,-0.075C0.275,-0.069 0.248,-0.062 0.228,-0.062Z" style="fill:white;fill-rule:nonzero;"/>
            </g>
            <g transform="matrix(91.2,0,0,96,570.368,738.405)">
                <path d="M0.393,-0.645C0.457,-0.645 0.511,-0.626 0.555,-0.606L0.585,-0.685C0.531,-0.712 0.467,-0.724 0.394,-0.724C0.173,-0.724 0.051,-0.574 0.051,-0.358C0.051,-0.133 0.16,0.01 0.379,0.01C0.469,0.01 0.522,0.001 0.602,-0.036L0.576,-0.105C0.53,-0.083 0.454,-0.069 0.392,-0.069C0.228,-0.069 0.146,-0.18 0.146,-0.357C0.146,-0.536 0.24,-0.645 0.393,-0.645Z" style="fill:white;fill-rule:nonzero;"/>
            </g>
            <g transform="matrix(91.2,0,0,96,626.182,738.405)">
                <path d="M0.075,-0.727L0.075,-0L0.163,-0L0.163,-0.277C0.163,-0.402 0.2,-0.472 0.32,-0.472C0.402,-0.472 0.44,-0.429 0.44,-0.343L0.44,-0L0.527,-0L0.527,-0.349C0.527,-0.486 0.461,-0.545 0.331,-0.545C0.262,-0.545 0.198,-0.517 0.164,-0.462L0.158,-0.462C0.161,-0.483 0.163,-0.511 0.163,-0.537L0.163,-0.76L0.075,-0.727Z" style="fill:white;fill-rule:nonzero;"/>
            </g>
            <g transform="matrix(91.2,0,0,96,679.443,738.405)">
                <path d="M0.435,-0.536L0.435,-0.257C0.435,-0.132 0.396,-0.063 0.277,-0.063C0.196,-0.063 0.158,-0.105 0.158,-0.191L0.158,-0.536L0.069,-0.536L0.069,-0.185C0.069,-0.049 0.135,0.01 0.264,0.01C0.333,0.01 0.399,-0.015 0.434,-0.071L0.438,-0.071L0.451,-0L0.523,-0L0.523,-0.536L0.435,-0.536Z" style="fill:white;fill-rule:nonzero;"/>
            </g>
            <g transform="matrix(91.2,0,0,96,733.981,738.405)">
                <path d="M0.325,-0.546C0.25,-0.546 0.195,-0.497 0.161,-0.438L0.157,-0.438L0.147,-0.536L0.075,-0.536L0.075,-0L0.163,-0L0.163,-0.286C0.163,-0.394 0.236,-0.466 0.319,-0.466C0.337,-0.466 0.36,-0.463 0.377,-0.459L0.388,-0.54C0.37,-0.544 0.345,-0.546 0.325,-0.546Z" style="fill:white;fill-rule:nonzero;"/>
            </g>
            <g transform="matrix(91.2,0,0,96,767.902,738.405)">
                <path d="M0.29,0.01C0.351,0.01 0.405,-0.003 0.435,-0.022L0.408,-0.092C0.373,-0.076 0.334,-0.066 0.289,-0.066C0.188,-0.066 0.136,-0.137 0.136,-0.266C0.136,-0.4 0.187,-0.469 0.294,-0.469C0.331,-0.469 0.378,-0.456 0.41,-0.444L0.438,-0.517C0.406,-0.533 0.35,-0.546 0.296,-0.546C0.152,-0.546 0.045,-0.463 0.045,-0.265C0.045,-0.075 0.147,0.01 0.29,0.01Z" style="fill:white;fill-rule:nonzero;"/>
            </g>
            <g transform="matrix(91.2,0,0,96,809.854,738.405)">
                <path d="M0.075,-0.727L0.075,-0L0.163,-0L0.163,-0.277C0.163,-0.402 0.2,-0.472 0.32,-0.472C0.402,-0.472 0.44,-0.429 0.44,-0.343L0.44,-0L0.527,-0L0.527,-0.349C0.527,-0.486 0.461,-0.545 0.331,-0.545C0.262,-0.545 0.198,-0.517 0.164,-0.462L0.158,-0.462C0.161,-0.483 0.163,-0.511 0.163,-0.537L0.163,-0.76L0.075,-0.727Z" style="fill:white;fill-rule:nonzero;"/>
            </g>
            <g transform="matrix(91.2,0,0,96,863.115,738.405)">
                <path d="M0.281,-0.474C0.37,-0.474 0.41,-0.412 0.411,-0.321L0.138,-0.321C0.147,-0.417 0.197,-0.474 0.281,-0.474ZM0.282,-0.546C0.14,-0.546 0.045,-0.44 0.045,-0.264C0.045,-0.085 0.15,0.01 0.303,0.01C0.376,0.01 0.424,-0.001 0.479,-0.025L0.454,-0.091C0.412,-0.075 0.359,-0.065 0.307,-0.065C0.2,-0.065 0.139,-0.13 0.136,-0.251L0.503,-0.251L0.503,-0.304C0.503,-0.45 0.419,-0.546 0.282,-0.546Z" style="fill:white;fill-rule:nonzero;"/>
            </g>
            <g transform="matrix(91.2,0,0,96,912.728,738.405)">
                <path d="M0.424,-0.148C0.424,-0.234 0.365,-0.269 0.263,-0.307C0.16,-0.346 0.125,-0.364 0.125,-0.409C0.125,-0.449 0.164,-0.474 0.236,-0.474C0.288,-0.474 0.34,-0.459 0.386,-0.439L0.413,-0.51C0.363,-0.532 0.307,-0.546 0.242,-0.546C0.122,-0.546 0.041,-0.495 0.041,-0.404C0.041,-0.316 0.103,-0.284 0.207,-0.244C0.312,-0.204 0.339,-0.18 0.339,-0.14C0.339,-0.092 0.301,-0.061 0.212,-0.061C0.161,-0.061 0.103,-0.077 0.068,-0.092L0.042,-0.024C0.083,-0.002 0.135,0.01 0.21,0.01C0.341,0.01 0.424,-0.044 0.424,-0.148Z" style="fill:white;fill-rule:nonzero;"/>
            </g>
        </g>
    </g>
</svg>
