<?xml version="1.0" encoding="utf-8"?>
<!-- Generator: Adobe Illustrator 22.0.1, SVG Export Plug-In . SVG Version: 6.00 Build 0)  -->
<svg version="1.1" id="Layer_1" xmlns="http://www.w3.org/2000/svg" xmlns:xlink="http://www.w3.org/1999/xlink" x="0px" y="0px"
	 viewBox="0 0 283.5 283.5" style="enable-background:new 0 0 283.5 283.5;" xml:space="preserve">
<style type="text/css">
	.st0{fill:#FF8200;}
	.st1{fill:#FFFFFF;}
	.st2{display:none;fill:#FFFFFF;}
</style>
<rect id="Orange_Box" class="st0" width="283.5" height="283.5"/>
<g id="SDA_Flame">
	<path class="st1" d="M160.9,147.1c-8.2,8.2-12.1,12-14.1,21.9c-0.1,0.7-1,0.7-1,0v-12.1c0-7.8,6.9-14.9,15.2-23.1l6.6-6.6
		c9.3-9.3,11.5-20.1,4.1-26.5c-0.6-0.5-0.3-1.2,0.5-0.8c9.2,4.2,16.5,19.4,0.7,35.2L160.9,147.1z M145.7,178.3v12.2
		c0,0.7,0.8,0.7,1,0c2-9.9,6-13.9,14.1-22l12.9-12.9c15.8-15.8,18.5-31.1,10.5-40.9c-0.5-0.7-1.1-0.3-0.8,0.5
		c5.3,12-7.4,24.7-13.5,30.8l-9.1,9.1C152.6,163.4,145.7,170.5,145.7,178.3 M110.7,139c-15.8,15.8-8.5,31,0.7,35.2
		c0.8,0.4,1.1-0.3,0.5-0.8c-7.4-6.4-5.1-17.2,4.1-26.5l26.2-26.2c8.2-8.3,15.2-15.4,15.2-23.1V85.5c0-0.7-0.8-0.7-1,0
		c-2,9.9-6,13.8-14.1,21.9L110.7,139z M157.4,76.3V64.1c0-0.7-0.8-0.7-1,0c-2,9.9-6,13.9-14.1,22l-32.5,32.5
		c-15.8,15.8-18.5,31.1-10.5,40.9c0.5,0.7,1.1,0.3,0.8-0.5c-5.3-12,7.4-24.8,13.5-30.8l28.8-28.8C150.5,91.1,157.4,84,157.4,76.3
		 M106.3,100.7c-13.6,13.6-15.5,27.9-12.6,37.3c0.2,0.8,0.9,0.8,0.9,0c-0.1-7.9,2.2-14.6,16.6-29l31-31c8.2-8.3,15.2-15.4,15.2-23.1
		V42.9c0-0.7-0.8-0.7-1,0c-2,9.9-6,13.8-14.2,22L106.3,100.7z M125.3,199.1c-0.3,0-0.5-0.2-0.5-0.5v-7c0-0.3,0.2-0.5,0.5-0.5h11.9
		c0.3,0,0.5-0.2,0.5-0.5c0-6.3-4.8-10.6-23.9-7.3l-41.2,7.1c0,0-31.4,31.4-31.6,31.7c-0.4,0.5-0.1,1.2,0.6,1.1
		c0.6-0.1,68.5-11.8,68.5-11.8c15.6-2.6,24.1,4.8,26.7,11.7c0.2,0.6,1,0.5,1-0.1v-23.5c0-0.3-0.2-0.5-0.5-0.5H125.3z M174.5,184.1
		l-13.6,13.6c-8.2,8.2-15.2,15.4-15.2,23.1l0,2.2c0,0.6,0.7,0.7,1,0.1c2.5-7,11-14.4,26.7-11.7c0,0,68,11.7,68.5,11.8
		c0.7,0.1,1-0.6,0.6-1.1c-0.3-0.3-31.6-31.7-31.6-31.7L174.5,184.1z M189.8,136.1c-0.2-0.8-0.9-0.8-0.9,0c0.1,7.9-2.2,14.6-16.6,29
		l-11.4,11.4c-5.2,5.2-9.8,9.9-12.6,14.6h11.2c0.4-0.4,0.9-0.9,1.3-1.3l16.3-16.3C190.8,159.8,192.7,145.4,189.8,136.1 M145.7,211.7
		c0,0.7,0.8,0.7,1,0c1.1-5.4,2.8-9.1,5.5-12.6l-6,0c-0.3,0-0.5,0.2-0.5,0.5V211.7z"/>
	<path id="_xA9_" class="st2" d="M234.2,199.9c0.7,0,1.1-0.4,1.1-0.9c0-0.6-0.4-0.9-1.1-0.9h-0.7v1.8H234.2z M232.5,197.3h1.7
		c1.5,0,2.1,0.6,2.1,1.7c0,0.8-0.5,1.2-1,1.5l1.5,2.5h-1.2l-1.3-2.3h-0.8v2.3h-1V197.3z M238.4,200.2c0-2.3-1.7-4.1-4.1-4.1
		c-2.4,0-4.1,1.7-4.1,4.1c0,2.2,1.7,4.1,4.1,4.1C236.6,204.2,238.4,202.6,238.4,200.2 M229.6,200.2c0-2.8,2-4.9,4.8-4.9
		c2.7,0,4.8,2,4.8,4.9c0,2.8-2,4.8-4.8,4.8C231.5,204.9,229.6,202.9,229.6,200.2"/>
	<g id="TM">
		<polygon class="st1" points="234.3,197.5 232.5,197.5 232.5,196.6 237.2,196.6 237.2,197.5 235.4,197.5 235.4,202.8 234.3,202.8
					"/>
		<polygon class="st1" points="237.9,196.6 239.4,196.6 241.2,201.4 243,196.6 244.6,196.6 244.6,202.8 243.5,202.8 243.5,199.3
			243.5,198 243.4,198 241.7,202.8 240.8,202.8 239,198 239,198 239,199.1 239,202.8 237.9,202.8 		"/>
	</g>
</g>
</svg>
