<?xml version="1.0" encoding="UTF-8"?>
<svg data-bbox="0 0 1188.708 218.6" xmlns="http://www.w3.org/2000/svg" viewBox="0 0 1214.066 218.6" data-type="color">
    <g>
        <path fill="#ff8200" d="M218.6 0v218.6H0V0h218.6z" data-color="1"/>
        <path fill="#3d3935" d="M765.1 0v218.6H218.6V0h546.5z" data-color="2"/>
        <path d="M124.6 112.1c-6.6 6.6-9.8 9.7-11.4 17.7-.1.6-.8.6-.8 0V120c0-6.3 5.6-12 12.2-18.6l5.3-5.3c7.5-7.5 9.3-16.2 3.3-21.3-.5-.4-.2-1 .4-.7 7.4 3.4 13.3 15.7.6 28.4l-9.6 9.6Zm-12.2 25.1v9.8c0 .6.7.6.8 0 1.6-8 4.8-11.2 11.4-17.7l10.4-10.4c12.7-12.7 14.9-25 8.5-32.9-.4-.5-.9-.2-.6.4 4.3 9.7-6 19.9-10.9 24.8l-7.4 7.4c-6.6 6.6-12.2 12.3-12.2 18.6m-28.2-31.6c-12.7 12.7-6.9 25 .5 28.4.7.3.9-.2.4-.7-6-5.2-4.1-13.8 3.3-21.3l21.1-21.2c6.6-6.6 12.2-12.4 12.2-18.6v-9.8c0-.6-.7-.6-.8 0-1.6 8-4.8 11.1-11.4 17.7l-25.3 25.5ZM121.9 55v-9.8c0-.6-.7-.6-.8 0-1.6 8-4.8 11.2-11.4 17.7L83.5 89.1c-12.7 12.7-14.9 25-8.5 33 .4.5.9.2.6-.4-4.3-9.7 6-19.9 10.9-24.8l23.2-23.2c6.6-6.7 12.2-12.4 12.2-18.7M80.7 74.7c-10.9 10.9-12.5 22.5-10.1 30.1.2.6.8.7.7 0-.1-6.3 1.8-11.8 13.4-23.4l25-25c6.6-6.6 12.2-12.4 12.2-18.6V28c0-.6-.7-.6-.8 0-1.6 8-4.8 11.1-11.4 17.7l-29 29ZM96 154c-.2 0-.4-.2-.4-.4v-5.7c0-.2.2-.4.4-.4h9.6c.2 0 .4-.2.4-.4 0-5.1-3.9-8.5-19.2-5.9l-33.2 5.7-25.5 25.5c-.3.4-.1.9.5.9.5 0 55.2-9.5 55.2-9.5 12.6-2.1 19.4 3.9 21.5 9.5.2.5.8.4.8-.1v-18.9c0-.2-.2-.4-.4-.4l-9.7.1Zm39.6-12.1-11 11c-6.6 6.6-12.2 12.4-12.2 18.6v1.7c0 .5.6.5.8.1 2.1-5.6 8.9-11.6 21.5-9.5 0 0 54.8 9.5 55.2 9.5.5 0 .8-.5.5-.9l-25.5-25.5-29.3-5Zm12.3-38.7c-.2-.6-.8-.7-.7 0 .1 6.3-1.8 11.8-13.4 23.4l-9.2 9.2c-4.2 4.2-7.9 8-10.1 11.8h9l1.1-1.1 13.1-13.2c11-11 12.5-22.6 10.2-30.1m-35.5 60.9c0 .6.7.6.8 0 .9-4.4 2.3-7.3 4.4-10.2h-4.8c-.2 0-.4.2-.4.4v9.8Zm71.4-11.4h-1.5v-.7h3.9v.7h-1.5v4.2h-.9v-4.2Zm2.9-.7h1.2l1.5 3.9 1.4-3.9h1.3v4.9h-.9v-3.8h-.1l-1.4 3.8h-.7l-1.4-3.8h-.1v3.8h-.8V152Z" fill="#ffffff" data-color="3"/>
        <path d="M354.2 82.2c0-6.9-4.3-9.8-12-12.7-7.2-2.7-9.6-4.4-9.6-8.9 0-3.8 2.8-6.4 8.3-6.4 3.8 0 7.4 1.1 10.5 2.3l1.8-4.7c-3.3-1.5-7.3-2.5-12.2-2.5-8.3 0-14.1 4.3-14.1 11.2 0 6.9 3.8 10.4 11.4 13.1 8 2.9 10.4 4.8 10.4 9.1 0 4.4-3.4 7.1-9.9 7.1-4.7 0-8.7-1-10.6-1.9l-1.7 4.6c2.8 1.4 7.2 2.1 12.1 2.1 9.5 0 15.6-4.6 15.6-12.4m19.7-21.9c-8.8 0-14.6 6.5-14.6 17.4 0 11 6.5 16.9 15.9 16.9 4.5 0 7.5-.7 10.9-2.2l-1.5-4.1c-2.6 1-5.9 1.6-9.1 1.6-6.6 0-10.4-4-10.6-11.5h22.7v-3.3c-.1-8.9-5.3-14.8-13.7-14.8m-.1 4.4c5.5 0 8 3.8 8 9.4H365c.5-5.8 3.6-9.4 8.8-9.4M400.1 94h6.2l12.6-33.1h-5.8l-7 19.5c-.9 2.7-2.3 6.7-2.8 8.8h-.2c-.4-2-1.7-6-2.7-8.8l-7-19.5h-5.8L400.1 94Zm35-33.7c-8.8 0-14.6 6.5-14.6 17.4 0 11 6.5 16.9 15.9 16.9 4.5 0 7.5-.7 10.9-2.2l-1.5-4.1c-2.6 1-5.9 1.6-9.1 1.6-6.6 0-10.4-4-10.6-11.5h22.7v-3.3c-.1-8.9-5.2-14.8-13.7-14.8m-.1 4.4c5.5 0 8 3.8 8 9.4h-16.9c.7-5.8 3.8-9.4 8.9-9.4m36.2-4.4c-4.2 0-8.3 1.7-10.4 5.1h-.3l-.8-4.5h-4.4V94h5.4V76.8c0-7.7 2.3-12 9.7-12 5.1 0 7.4 2.7 7.4 8V94h5.4V72.4c0-8.5-4.1-12.1-12-12.1M501 90.2c-3 0-5.2-1.9-5.2-5.9V65.1h9.6v-4.2h-9.6v-7.6l-5.4 2v29c0 8 4.5 10.2 9.7 10.2 2.5 0 4.9-.6 6.1-1.4l-1.5-3.9c-.8.5-2.4 1-3.7 1m14.8-43.1-5.4 2V94h5.4V76.9c0-7.7 2.3-12 9.7-12 5.1 0 7.4 2.7 7.4 8V94h5.4V72.4c0-8.5-4.1-12.1-12.1-12.1-4.3 0-8.2 1.7-10.3 5.1h-.4c.2-1.3.3-3 .3-4.6V47.1Zm29 32.8h14.9l-1.8-4.8H543l1.8 4.8Zm32.3 14.7c5.2 0 8.3-2.2 10.3-5.1h.2l.8 4.4h4.4V47.1l-5.4 2.1v11.1c0 1.2.2 3.8.4 4.9h-.4c-2-2.7-5.1-4.9-10.2-4.9-8.2 0-13.6 5.9-13.6 17.2-.1 11.4 5.3 17.1 13.5 17.1m.8-4.5c-5.9 0-8.8-4.6-8.8-12.5 0-7.8 2.9-12.8 8.8-12.8 7.3 0 9.6 4.6 9.6 12.8v1c-.1 7.7-2.6 11.5-9.6 11.5m36.7-29.7c-4.3 0-8.4 1.3-11.3 2.8l1.7 4.1c2.7-1.3 5.9-2.5 9.3-2.5 4.3 0 6.9 1.8 6.9 7.3v2l-5.6.2c-10.8.3-15.9 4-15.9 10.6 0 6.7 4.4 9.8 10.4 9.8 5.6 0 8.2-1.7 11.1-5.3h.2l1 4.7h4V71.5c0-7.8-3.8-11.1-11.8-11.1m6.5 17.4v3c0 6.4-4.2 9.4-9.8 9.4-3.6 0-6-1.7-6-5.4 0-4.2 2.7-6.5 10.9-6.9l4.9-.1Zm8.6-16.9L643 94.1l-1.7 4.4c-1.4 3.6-2.4 4.8-4.9 5.9l1.7 4.4c4.4-1.7 6.5-4 8.8-10.2l14.3-37.7h-5.9l-6.7 18.8c-1.2 3.4-2.3 7-2.8 9.1h-.2c-.5-2.7-1.5-5.7-2.8-9L635.6 61l-5.9-.1Z" fill="#ffffff" data-color="3"/>
        <path d="M291.1 158.3h5.7L279.6 114h-5l-17.2 44.3h5.6l5.2-13.6h17.5l5.4 13.6Zm-7-18.5h-14l5-13.3c.5-1.4 1.3-4.1 1.9-6.6.4 1.5 1.7 5.6 2.1 6.6l5 13.3Zm28.6 19.2c5.2 0 8.3-2.2 10.3-5.1h.2l.8 4.4h4.4v-46.9l-5.4 2.1v11.1c0 1.2.2 3.8.4 4.9h-.4c-2-2.7-5.1-4.9-10.2-4.9-8.2 0-13.6 5.9-13.6 17.2-.1 11.4 5.3 17.2 13.5 17.2m.8-4.6c-5.9 0-8.8-4.6-8.8-12.5 0-7.8 2.9-12.8 8.8-12.8 7.3 0 9.6 4.6 9.6 12.8v1c-.1 7.7-2.6 11.5-9.6 11.5m31.4 3.9h6.2l12.6-33.1H358l-7 19.5c-.9 2.7-2.3 6.7-2.8 8.8h-.2c-.4-2-1.7-6.1-2.7-8.8l-7-19.5h-5.8l12.4 33.1Zm35-33.7c-8.8 0-14.6 6.5-14.6 17.4 0 11 6.5 16.9 15.9 16.9 4.5 0 7.5-.7 10.9-2.2l-1.5-4.1c-2.6 1-5.9 1.6-9.1 1.6-6.6 0-10.4-4-10.6-11.5h22.7v-3.3c0-8.8-5.2-14.8-13.7-14.8m0 4.5c5.5 0 8 3.8 8 9.4h-16.8c.5-5.9 3.6-9.4 8.8-9.4m36.2-4.5c-4.2 0-8.3 1.7-10.4 5.1h-.3l-.8-4.5h-4.4v33.1h5.4v-17.2c0-7.7 2.3-12 9.7-12 5.1 0 7.4 2.7 7.4 8v21.2h5.4v-21.5c-.1-8.5-4.1-12.2-12-12.2m29.8 29.9c-3 0-5.2-1.9-5.2-5.9v-19.1h9.6v-4.2h-9.6v-7.6l-5.4 2v29c0 8 4.5 10.2 9.7 10.2 2.5 0 4.9-.6 6-1.4l-1.5-3.9c-.7.5-2.4.9-3.6.9m12.1-41.7c-1.8 0-3.2 1.1-3.2 3.5 0 2.3 1.4 3.5 3.2 3.5 1.7 0 3.1-1.1 3.1-3.5.1-2.4-1.4-3.5-3.1-3.5m2.7 12.5h-5.4v33.1h5.4v-33.1Zm30.2 23.9c0-5.3-3.6-7.5-9.9-9.8-6.4-2.4-8.5-3.5-8.5-6.3 0-2.5 2.4-4 6.9-4 3.2 0 6.4.9 9.3 2.2l1.7-4.4c-3.1-1.4-6.5-2.2-10.6-2.2-7.4 0-12.4 3.2-12.4 8.8 0 5.4 3.8 7.4 10.2 9.9 6.5 2.5 8.1 4 8.1 6.4 0 3-2.3 4.9-7.8 4.9-3.1 0-6.7-1-8.9-1.9l-1.6 4.2c2.5 1.4 5.7 2.1 10.4 2.1 7.9-.1 13.1-3.5 13.1-9.9m15.4 5.3c-3 0-5.2-1.9-5.2-5.9v-19.1h9.6v-4.2h-9.6v-7.6l-5.4 2v29c0 8 4.5 10.2 9.7 10.2 2.5 0 4.9-.6 6.1-1.4l-1.5-3.9c-.8.5-2.5.9-3.7.9m43.2-36c4 0 7.3 1.2 10 2.4l1.9-4.9c-3.3-1.7-7.3-2.4-11.8-2.4-13.6 0-21.2 9.3-21.2 22.6 0 13.9 6.7 22.7 20.2 22.7 5.6 0 8.8-.6 13.8-2.8l-1.6-4.3c-2.8 1.4-7.5 2.2-11.4 2.2-10.1 0-15.2-6.9-15.2-17.8.1-10.9 5.9-17.7 15.3-17.7m23-7.1-5.4 2v44.9h5.4v-17.1c0-7.7 2.3-12 9.7-12 5.1 0 7.4 2.7 7.4 8v21.2h5.4v-21.5c0-8.5-4.1-12.1-12.1-12.1-4.3 0-8.2 1.7-10.3 5.1h-.4c.2-1.3.3-3 .3-4.6v-13.9Zm58.5 13.9h-5.4v17.2c0 7.7-2.4 12-9.8 12-5 0-7.3-2.6-7.3-7.9v-21.3H603V147c0 8.4 4.1 12 12 12 4.3 0 8.3-1.5 10.5-5h.2l.8 4.4h4.4l.1-33.1Zm24.1-.7c-4.6 0-8 3-10.1 6.7h-.2l-.6-6h-4.4v33.1h5.4v-17.7c0-6.7 4.5-11.1 9.6-11.1 1.1 0 2.5.2 3.6.4l.7-5c-1.3-.2-2.8-.4-4-.4m20.2 34.4c3.8 0 7.1-.8 8.9-2l-1.7-4.3c-2.2 1-4.6 1.6-7.3 1.6-6.2 0-9.4-4.4-9.4-12.3 0-8.3 3.1-12.5 9.8-12.5 2.3 0 5.2.8 7.2 1.5l1.7-4.5c-2-1-5.4-1.8-8.8-1.8-8.9 0-15.5 5.1-15.5 17.3 0 11.7 6.3 17 15.1 17m19.9-47.6-5.4 2v44.9h5.4v-17.1c0-7.7 2.3-12 9.7-12 5.1 0 7.4 2.7 7.4 8v21.2h5.4v-21.5c0-8.5-4.1-12.1-12.1-12.1-4.3 0-8.2 1.7-10.3 5.1h-.4c.2-1.3.3-3 .3-4.6v-13.9Z" fill="#ffffff" data-color="3"/>
        <path d="M720.1 113.7h-1.7v-.8h4.5v.8h-1.7v4.8h-1.1Zm3.4-.8h1.5l1.7 4.4 1.6-4.4h1.5v5.6h-1v-4.3h-.1l-1.6 4.3h-.9l-1.6-4.3h-.1v4.3h-1Z" fill="#ffffff" data-color="3"/>
        <path d="M821.053 144.738c6.302-2.99 21.367-8.625 28.313-8.625 2.323 0 4.324.506 5.635 1.817.506.506.989.667 1.495.667 1.656 0 2.99-2.139 1.495-3.634-2.323-2.323-5.313-2.99-8.441-2.99-2.99 0-6.141.667-8.786 1.334l-2.162.667c3.979-13.432 8.28-26.68 12.604-39.928 4.14-12.581 10.097-25.323 12.903-38.249 2.484-.828 4.968-1.311 7.13-1.495.161 1.173 1.311 2.001 2.323 2.001.644 0 1.15-.345 1.656-.989.483-1.173.644-1.656.644-2.829 0-.828-.644-1.817-1.472-1.978-.828-.161-1.495-.161-2.323-.161-2.645 0-5.313.644-7.797 1.311-2.3.345-7.452 2.162-11.086 2.162-1.334 0-2.484-.161-3.151-.828-.322-.345-.828-.506-1.311-.506-1.656 0-3.312 2.162-1.656 3.473 1.817 1.495 3.956 2.162 6.279 2.162 2.001 0 3.979-.506 5.957-.989-2.967 12.075-8.441 24.012-12.236 35.765-4.646 14.076-9.108 28.152-13.248 42.389-5.152 1.495-10.12 3.473-14.904 5.796-2.162.989-.828 3.818 1.15 3.818.322 0 .667 0 .989-.161Zm79.166-31.97c1.817-2.162 1.495-3.634.322-3.634-.667 0-1.495.322-2.323 1.15-3.795 4.646-15.893 11.914-22.011 11.914-2.99 0-4.14-1.656-4.14-4.784 0-1.495.322-3.151.667-5.152 2.645-2.3 8.28-7.935 15.387-16.882 9.775-12.259 16.56-21.689 17.066-31.142.322-5.451-1.173-9.108-4.14-9.108-2.001 0-4.646 1.656-7.958 5.313-10.925 11.914-24.495 39.744-24.495 56.465 0 4.968 1.472 9.269 6.44 9.269 7.13 0 20.7-7.935 25.185-13.409Zm-26.657-5.957c3.473-14.076 13.064-32.637 21.528-43.056 2.139-2.829 3.956-4.14 5.29-4.14s1.817 1.656 1.334 4.623c-2.162 13.248-18.722 32.476-28.152 42.573Zm55.798 5.957c1.817-2.162 1.495-3.634.322-3.634-.644 0-1.472.322-2.3 1.15-3.818 4.646-15.916 11.914-22.034 11.914-2.99 0-4.14-1.656-4.14-4.784 0-1.495.322-3.151.667-5.152 2.645-2.3 8.28-7.935 15.387-16.882 9.775-12.259 16.56-21.689 17.066-31.142.322-5.451-1.15-9.108-4.14-9.108-1.978 0-4.646 1.656-7.958 5.313-10.925 11.914-24.495 39.744-24.495 56.465 0 4.968 1.495 9.269 6.463 9.269 7.107 0 20.7-7.935 25.162-13.409Zm-26.657-5.957c3.473-14.076 13.087-32.637 21.528-43.056 2.139-2.829 3.979-4.14 5.29-4.14 1.334 0 1.817 1.656 1.334 4.623-2.162 13.248-18.722 32.476-28.152 42.573Zm45.862 4.14s-2.139 4.807-1.978 8.947c.161 3.634 1.978 4.784 4.462 4.784 6.969 0 18.722-8.096 22.356-13.064 1.173-1.656.667-2.162-.161-2.162-.989 0-2.484.506-2.99 1.334-3.634 3.312-13.064 10.419-18.032 10.419-1.334 0-1.84-.828-1.334-3.312.828-4.14 4.301-11.247 5.796-14.559.989-2.001-.322-3.818-1.817-3.818-.667 0-1.495.322-2.162 1.334-1.656 2.3-14.398 17.204-23.023 21.022-1.311.506-2.3.667-2.967.667-2.99 0-1.173-3.473 1.978-7.797 4.646-6.279 14.904-12.236 16.238-12.236 1.311-.345 1.495-3.979-2.829-3.979-6.624 0-18.699 15.226-20.033 21.183-.989 4.646.506 6.969 3.657 6.969 6.946 0 18.538-10.603 22.839-15.732Zm21.689 15.226c1.495 0 3.151-.483 4.646-1.311 4.301-1.84 12.098-9.614 12.098-9.614s-2.484 9.614 8.096 9.614c9.775 0 24.518-14.076 24.518-24.84 0-3.151-1.334-8.119-5.29-8.119-1.173 0-2.162.667-2.323 1.817-.989 1.817 1.978 1.334 2.806 3.312.989 2.323.989 4.301-1.495 10.097-2.484 5.796-11.914 14.076-18.538 14.076-3.818 0-5.474-2.806-4.646-6.624.667-3.312 8.119-11.431 9.108-13.409.667-1.15-1.311-1.817-3.128-1.817-.828 0-1.656.161-2.001.483-4.301 7.797-12.581 15.916-20.033 20.7-1.495 1.012-3.151 2.162-3.979 2.162-.483 0-.667-.322-.483-1.495 1.311-9.43 11.086-16.56 12.581-17.871.828-1.173-1.495-2.99-3.657-2.99-4.623 0-11.592 15.893-12.236 19.711-.828 4.462 1.15 6.118 3.956 6.118Zm74.865-15.226s-2.162 4.807-2.001 8.947c.184 3.634 2.001 4.784 4.485 4.784 6.946 0 18.699-8.096 22.356-13.064 1.15-1.656.667-2.162-.161-2.162-1.012 0-2.484.506-2.99 1.334-3.634 3.312-13.087 10.419-18.055 10.419-1.311 0-1.817-.828-1.311-3.312.828-4.14 4.301-11.247 5.796-14.559.989-2.001-.345-3.818-1.84-3.818-.644 0-1.472.322-2.139 1.334-1.656 2.3-14.421 17.204-23.023 21.022-1.334.506-2.323.667-2.99.667-2.967 0-1.15-3.473 2.001-7.797 4.623-6.279 14.904-12.236 16.215-12.236 1.334-.345 1.495-3.979-2.806-3.979-6.624 0-18.722 15.226-20.033 21.183-.989 4.646.483 6.969 3.634 6.969 6.969 0 18.561-10.603 22.862-15.732Zm18.883 15.065c4.623-8.119 18.86-20.7 28.796-20.7 1.84 0 2.99.506 3.496.989.322.345.828.506 1.15.506 1.495 0 2.99-2.484 1.656-4.301-.667-1.012-2.484-1.656-4.807-1.656-8.119 0-20.539 8.28-25.507 14.076 0 0 4.968-8.947 6.808-12.42 1.15-2.162-1.012-3.151-2.162-3.151-.506 0-.828 0-.989.322-.828 1.173-12.42 23.69-12.765 24.679-.644 2.162.345 2.806 1.656 2.806 1.173 0 2.323-.644 2.668-1.15Zm37.421 0c4.623-8.119 18.883-20.7 28.819-20.7 1.817 0 2.967.506 3.473.989.322.345.828.506 1.15.506 1.495 0 2.99-2.484 1.656-4.301-.667-1.012-2.484-1.656-4.807-1.656-8.096 0-20.516 8.28-25.484 14.076 0 0 4.968-8.947 6.785-12.42 1.15-2.162-.989-3.151-2.162-3.151-.483 0-.828 0-.989.322-.828 1.173-12.42 23.69-12.742 24.679-.667 2.162.322 2.806 1.656 2.806 1.15 0 2.3-.644 2.645-1.15Zm61.755-15.065s-2.139 4.807-1.978 8.947c.161 3.634 1.978 4.784 4.462 4.784 6.969 0 18.722-8.096 22.356-13.064 1.173-1.656.667-2.162-.161-2.162-.989 0-2.484.506-2.967 1.334-3.657 3.312-13.087 10.419-18.055 10.419-1.334 0-1.817-.828-1.334-3.312.828-4.14 4.301-11.247 5.796-14.559.989-2.001-.322-3.818-1.817-3.818-.667 0-1.495.322-2.162 1.334-1.656 2.3-14.398 17.204-23 21.022-1.334.506-2.323.667-2.99.667-2.99 0-1.15-3.473 1.978-7.797 4.646-6.279 14.904-12.236 16.238-12.236 1.334-.345 1.495-3.979-2.806-3.979-6.624 0-18.722 15.226-20.056 21.183-.989 4.646.506 6.969 3.657 6.969 6.946 0 18.538-10.603 22.839-15.732Z" fill="#3d3935" data-color="2"/>
    </g>
</svg>
